<svg width="48" height="48" viewBox="0 0 48 48" fill="none" xmlns="http://www.w3.org/2000/svg">
<path d="M0 24C0 10.7452 10.7452 0 24 0V0C37.2548 0 48 10.7452 48 24V24C48 37.2548 37.2548 48 24 48V48C10.7452 48 0 37.2548 0 24V24Z" fill="white"/>
<path d="M24 47.5C11.0213 47.5 0.5 36.9787 0.5 24C0.5 11.0213 11.0213 0.5 24 0.5C36.9787 0.5 47.5 11.0213 47.5 24C47.5 36.9787 36.9787 47.5 24 47.5Z" stroke="#353532" stroke-opacity="0.2"/>
<path d="M24 43.5C13.2304 43.5 4.5 34.7696 4.5 24C4.5 13.2304 13.2304 4.5 24 4.5C34.7696 4.5 43.5 13.2304 43.5 24C43.5 34.7696 34.7696 43.5 24 43.5Z" stroke="#353532" stroke-opacity="0.2"/>
<path d="M28.1667 21.5V19.8333C28.1667 19.3913 27.9911 18.9673 27.6785 18.6548C27.366 18.3422 26.942 18.1666 26.5 18.1666H18.1667C17.7246 18.1666 17.3007 18.3422 16.9882 18.6548C16.6756 18.9673 16.5 19.3913 16.5 19.8333V24.8333C16.5 25.2753 16.6756 25.6992 16.9882 26.0118C17.3007 26.3244 17.7246 26.5 18.1667 26.5H19.8333M21.5 29.8333H29.8333C30.2754 29.8333 30.6993 29.6577 31.0118 29.3451C31.3244 29.0326 31.5 28.6087 31.5 28.1666V23.1666C31.5 22.7246 31.3244 22.3007 31.0118 21.9881C30.6993 21.6756 30.2754 21.5 29.8333 21.5H21.5C21.058 21.5 20.634 21.6756 20.3215 21.9881C20.0089 22.3007 19.8333 22.7246 19.8333 23.1666V28.1666C19.8333 28.6087 20.0089 29.0326 20.3215 29.3451C20.634 29.6577 21.058 29.8333 21.5 29.8333ZM27.3333 25.6666C27.3333 26.1087 27.1577 26.5326 26.8452 26.8451C26.5326 27.1577 26.1087 27.3333 25.6667 27.3333C25.2246 27.3333 24.8007 27.1577 24.4882 26.8451C24.1756 26.5326 24 26.1087 24 25.6666C24 25.2246 24.1756 24.8007 24.4882 24.4881C24.8007 24.1756 25.2246 24 25.6667 24C26.1087 24 26.5326 24.1756 26.8452 24.4881C27.1577 24.8007 27.3333 25.2246 27.3333 25.6666Z" stroke="black" stroke-width="2" stroke-linecap="round" stroke-linejoin="round"/>
</svg>
