<svg width="48" height="48" viewBox="0 0 48 48" fill="none" xmlns="http://www.w3.org/2000/svg">
<path d="M0 24C0 10.7452 10.7452 0 24 0V0C37.2548 0 48 10.7452 48 24V24C48 37.2548 37.2548 48 24 48V48C10.7452 48 0 37.2548 0 24V24Z" fill="white"/>
<path d="M24 47.5C11.0213 47.5 0.5 36.9787 0.5 24C0.5 11.0213 11.0213 0.5 24 0.5C36.9787 0.5 47.5 11.0213 47.5 24C47.5 36.9787 36.9787 47.5 24 47.5Z" stroke="#353532" stroke-opacity="0.2"/>
<path d="M24 43.5C13.2304 43.5 4.5 34.7696 4.5 24C4.5 13.2304 13.2304 4.5 24 4.5C34.7696 4.5 43.5 13.2304 43.5 24C43.5 34.7696 34.7696 43.5 24 43.5Z" stroke="#353532" stroke-opacity="0.2"/>
<path d="M20.6667 25.6667V28.1667M24 25.6667V28.1667M27.3333 25.6667V28.1667M16.5 31.5H31.5M16.5 22.3333H31.5M16.5 19.8333L24 16.5L31.5 19.8333M17.3333 22.3333H30.6667V31.5H17.3333V22.3333Z" stroke="black" stroke-width="2" stroke-linecap="round" stroke-linejoin="round"/>
</svg>
