<svg width="48" height="48" viewBox="0 0 48 48" fill="none" xmlns="http://www.w3.org/2000/svg">
<path d="M0 24C0 10.7452 10.7452 0 24 0V0C37.2548 0 48 10.7452 48 24V24C48 37.2548 37.2548 48 24 48V48C10.7452 48 0 37.2548 0 24V24Z" fill="white"/>
<path d="M24 47.5C11.0213 47.5 0.5 36.9787 0.5 24C0.5 11.0213 11.0213 0.5 24 0.5C36.9787 0.5 47.5 11.0213 47.5 24C47.5 36.9787 36.9787 47.5 24 47.5Z" stroke="#353532" stroke-opacity="0.2"/>
<path d="M24 43.5C13.2304 43.5 4.5 34.7696 4.5 24C4.5 13.2304 13.2304 4.5 24 4.5C34.7696 4.5 43.5 13.2304 43.5 24C43.5 34.7696 34.7696 43.5 24 43.5Z" stroke="#353532" stroke-opacity="0.2"/>
<path d="M20.6667 19.8334H18.1667C17.7246 19.8334 17.3007 20.009 16.9882 20.3215C16.6756 20.6341 16.5 21.058 16.5 21.5V29C16.5 29.4421 16.6756 29.866 16.9882 30.1786C17.3007 30.4911 17.7246 30.6667 18.1667 30.6667H29.8333C30.2754 30.6667 30.6993 30.4911 31.0118 30.1786C31.3244 29.866 31.5 29.4421 31.5 29V21.5C31.5 21.058 31.3244 20.6341 31.0118 20.3215C30.6993 20.009 30.2754 19.8334 29.8333 19.8334H27.3333M26.5 23.1667L24 25.6667M24 25.6667L21.5 23.1667M24 25.6667V17.3334" stroke="black" stroke-width="2" stroke-linecap="round" stroke-linejoin="round"/>
</svg>
