<svg width="48" height="48" viewBox="0 0 48 48" fill="none" xmlns="http://www.w3.org/2000/svg">
<path d="M0 24C0 10.7452 10.7452 0 24 0V0C37.2548 0 48 10.7452 48 24V24C48 37.2548 37.2548 48 24 48V48C10.7452 48 0 37.2548 0 24V24Z" fill="white"/>
<path d="M24 47.5C11.0213 47.5 0.5 36.9787 0.5 24C0.5 11.0213 11.0213 0.5 24 0.5C36.9787 0.5 47.5 11.0213 47.5 24C47.5 36.9787 36.9787 47.5 24 47.5Z" stroke="#353532" stroke-opacity="0.2"/>
<path d="M24 43.5C13.2304 43.5 4.5 34.7696 4.5 24C4.5 13.2304 13.2304 4.5 24 4.5C34.7696 4.5 43.5 13.2304 43.5 24C43.5 34.7696 34.7696 43.5 24 43.5Z" stroke="#353532" stroke-opacity="0.2"/>
<path d="M17.3333 17.3334V21.5H17.8183M17.8183 21.5C18.3715 20.1318 19.363 18.9858 20.6374 18.2416C21.9119 17.4974 23.3973 17.197 24.8607 17.3876C26.3242 17.5782 27.6831 18.249 28.7244 19.2948C29.7657 20.3407 30.4306 21.7024 30.6149 23.1667M17.8183 21.5H21.4999M30.6666 30.6667V26.5H30.1824M30.1824 26.5C29.6284 27.8674 28.6366 29.0126 27.3623 29.7561C26.0879 30.4996 24.603 30.7996 23.14 30.6091C21.677 30.4185 20.3184 29.7482 19.277 28.7031C18.2356 27.658 17.5702 26.2971 17.3849 24.8334M30.1824 26.5H26.4999" stroke="black" stroke-width="2" stroke-linecap="round" stroke-linejoin="round"/>
</svg>
