<svg width="48" height="48" viewBox="0 0 48 48" fill="none" xmlns="http://www.w3.org/2000/svg">
<path d="M0 24C0 10.7452 10.7452 0 24 0V0C37.2548 0 48 10.7452 48 24V24C48 37.2548 37.2548 48 24 48V48C10.7452 48 0 37.2548 0 24V24Z" fill="white"/>
<path d="M24 47.5C11.0213 47.5 0.5 36.9787 0.5 24C0.5 11.0213 11.0213 0.5 24 0.5C36.9787 0.5 47.5 11.0213 47.5 24C47.5 36.9787 36.9787 47.5 24 47.5Z" stroke="#353532" stroke-opacity="0.2"/>
<path d="M24 43.5C13.2304 43.5 4.5 34.7696 4.5 24C4.5 13.2304 13.2304 4.5 24 4.5C34.7696 4.5 43.5 13.2304 43.5 24C43.5 34.7696 34.7696 43.5 24 43.5Z" stroke="#353532" stroke-opacity="0.2"/>
<path d="M24 20.6667C22.6192 20.6667 21.5 21.4125 21.5 22.3333C21.5 23.2542 22.6192 24 24 24C25.3808 24 26.5 24.7458 26.5 25.6667C26.5 26.5875 25.3808 27.3333 24 27.3333M24 20.6667C24.925 20.6667 25.7333 21.0017 26.1658 21.5M24 20.6667V19.8333M24 20.6667V27.3333M24 27.3333V28.1667M24 27.3333C23.075 27.3333 22.2667 26.9983 21.8342 26.5M31.5 24C31.5 24.9849 31.306 25.9602 30.9291 26.8701C30.5522 27.7801 29.9997 28.6069 29.3033 29.3033C28.6069 29.9997 27.7801 30.5522 26.8701 30.9291C25.9602 31.306 24.9849 31.5 24 31.5C23.0151 31.5 22.0398 31.306 21.1299 30.9291C20.2199 30.5522 19.3931 29.9997 18.6967 29.3033C18.0003 28.6069 17.4478 27.7801 17.0709 26.8701C16.694 25.9602 16.5 24.9849 16.5 24C16.5 22.0109 17.2902 20.1032 18.6967 18.6967C20.1032 17.2902 22.0109 16.5 24 16.5C25.9891 16.5 27.8968 17.2902 29.3033 18.6967C30.7098 20.1032 31.5 22.0109 31.5 24Z" stroke="black" stroke-width="2" stroke-linecap="round" stroke-linejoin="round"/>
</svg>
