<svg width="48" height="48" viewBox="0 0 48 48" fill="none" xmlns="http://www.w3.org/2000/svg">
<path d="M0 24C0 10.7452 10.7452 0 24 0V0C37.2548 0 48 10.7452 48 24V24C48 37.2548 37.2548 48 24 48V48C10.7452 48 0 37.2548 0 24V24Z" fill="white"/>
<path d="M24 47.5C11.0213 47.5 0.5 36.9787 0.5 24C0.5 11.0213 11.0213 0.5 24 0.5C36.9787 0.5 47.5 11.0213 47.5 24C47.5 36.9787 36.9787 47.5 24 47.5Z" stroke="#353532" stroke-opacity="0.2"/>
<path d="M24 43.5C13.2304 43.5 4.5 34.7696 4.5 24C4.5 13.2304 13.2304 4.5 24 4.5C34.7696 4.5 43.5 13.2304 43.5 24C43.5 34.7696 34.7696 43.5 24 43.5Z" stroke="#353532" stroke-opacity="0.2"/>
<path d="M24 19.2108V30.0441M24 19.2108C23.0267 18.5641 21.705 18.1666 20.25 18.1666C18.795 18.1666 17.4733 18.5641 16.5 19.2108V30.0441C17.4733 29.3975 18.795 29 20.25 29C21.705 29 23.0267 29.3975 24 30.0441M24 19.2108C24.9733 18.5641 26.295 18.1666 27.75 18.1666C29.2058 18.1666 30.5267 18.5641 31.5 19.2108V30.0441C30.5267 29.3975 29.2058 29 27.75 29C26.295 29 24.9733 29.3975 24 30.0441" stroke="black" stroke-width="2" stroke-linecap="round" stroke-linejoin="round"/>
</svg>
