<svg width="104" height="24" viewBox="0 0 104 24" fill="none" xmlns="http://www.w3.org/2000/svg">
<g clip-path="url(#clip0_171_703)">
<path fill-rule="evenodd" clip-rule="evenodd" d="M0 3.75C0 1.67893 1.67893 0 3.75 0H20.25C22.3211 0 24 1.67893 24 3.75V20.25C24 22.3211 22.3211 24 20.25 24H3.75C1.67893 24 0 22.3211 0 20.25V3.75ZM16.575 8.625C17.1 8.55 17.55 8.475 18 8.25C17.7 8.775 17.25 9.225 16.725 9.525C16.875 13.05 14.325 16.875 9.75 16.875C8.4 16.875 7.125 16.425 6 15.75C7.275 15.9 8.625 15.525 9.525 14.85C8.4 14.85 7.5 14.1 7.2 13.125C7.575 13.2 7.95 13.125 8.325 13.05C7.2 12.75 6.375 11.7 6.375 10.575C6.75 10.725 7.125 10.875 7.5 10.875C6.45 10.125 6.075 8.7 6.75 7.575C8.025 9.075 9.825 10.05 11.85 10.125C11.475 8.625 12.675 7.125 14.25 7.125C14.925 7.125 15.6 7.425 16.05 7.875C16.65 7.725 17.175 7.575 17.625 7.275C17.475 7.875 17.1 8.325 16.575 8.625Z" fill="black"/>
</g>
<g clip-path="url(#clip1_171_703)">
<path fill-rule="evenodd" clip-rule="evenodd" d="M40 3.75C40 1.67893 41.6789 0 43.75 0H60.25C62.3211 0 64 1.67893 64 3.75V20.25C64 22.3211 62.3211 24 60.25 24H43.75C41.6789 24 40 22.3211 40 20.25V3.75ZM46.15 9.975V18H48.7V9.975H46.15ZM46 7.425C46 8.25 46.6 8.85 47.425 8.85C48.25 8.85 48.85 8.25 48.85 7.425C48.85 6.6 48.25 6 47.425 6C46.675 6 46 6.6 46 7.425ZM55.45 18H57.85V13.05C57.85 10.575 56.35 9.75 54.925 9.75C53.65 9.75 52.75 10.575 52.525 11.1V9.975H50.125V18H52.675V13.725C52.675 12.6 53.425 12 54.175 12C54.925 12 55.45 12.375 55.45 13.65V18Z" fill="black"/>
</g>
<g clip-path="url(#clip2_171_703)">
<path d="M91.9999 14.0999C90.8749 14.0999 89.8999 13.1999 89.8999 11.9999C89.8999 10.8749 90.7999 9.8999 91.9999 9.8999C93.1249 9.8999 94.0999 10.7999 94.0999 11.9999C94.0999 13.1249 93.1249 14.0999 91.9999 14.0999Z" fill="black"/>
<path fill-rule="evenodd" clip-rule="evenodd" d="M94.5499 6.8999H89.4499C88.8499 6.9749 88.5499 7.0499 88.3249 7.1249C88.0249 7.1999 87.7999 7.3499 87.5749 7.5749C87.3969 7.75294 87.3127 7.93098 87.2111 8.14618C87.1843 8.20289 87.1562 8.26234 87.1249 8.3249C87.1133 8.35971 87.0999 8.39631 87.0855 8.43554C87.0071 8.6499 86.8999 8.94272 86.8999 9.4499V14.5499C86.9749 15.1499 87.0499 15.4499 87.1249 15.6749C87.1999 15.9749 87.3499 16.1999 87.5749 16.4249C87.7529 16.6029 87.931 16.6871 88.1462 16.7887C88.2029 16.8156 88.2623 16.8436 88.3249 16.8749C88.3597 16.8865 88.3963 16.8999 88.4355 16.9143C88.6499 16.9927 88.9427 17.0999 89.4499 17.0999H94.5499C95.1499 17.0249 95.4499 16.9499 95.6749 16.8749C95.9749 16.7999 96.1999 16.6499 96.4249 16.4249C96.6029 16.2469 96.6871 16.0688 96.7887 15.8536C96.8155 15.7969 96.8436 15.7375 96.8749 15.6749C96.8865 15.6401 96.8999 15.6035 96.9143 15.5643C96.9927 15.3499 97.0999 15.0571 97.0999 14.5499V9.4499C97.0249 8.8499 96.9499 8.5499 96.8749 8.3249C96.7999 8.0249 96.6499 7.7999 96.4249 7.5749C96.2469 7.39686 96.0688 7.31274 95.8536 7.21106C95.7969 7.18429 95.7374 7.15615 95.6749 7.1249C95.6401 7.1133 95.6035 7.0999 95.5643 7.08554C95.3499 7.00708 95.0571 6.8999 94.5499 6.8999ZM91.9999 8.7749C90.1999 8.7749 88.7749 10.1999 88.7749 11.9999C88.7749 13.7999 90.1999 15.2249 91.9999 15.2249C93.7999 15.2249 95.2249 13.7999 95.2249 11.9999C95.2249 10.1999 93.7999 8.7749 91.9999 8.7749ZM96.0499 8.6999C96.0499 9.11411 95.7141 9.4499 95.2999 9.4499C94.8857 9.4499 94.5499 9.11411 94.5499 8.6999C94.5499 8.28568 94.8857 7.9499 95.2999 7.9499C95.7141 7.9499 96.0499 8.28568 96.0499 8.6999Z" fill="black"/>
<path fill-rule="evenodd" clip-rule="evenodd" d="M80 3.75C80 1.67893 81.6789 0 83.75 0H100.25C102.321 0 104 1.67893 104 3.75V20.25C104 22.3211 102.321 24 100.25 24H83.75C81.6789 24 80 22.3211 80 20.25V3.75ZM89.45 5.775H94.55C95.225 5.85 95.675 5.925 96.05 6.075C96.5 6.3 96.8 6.45 97.175 6.825C97.55 7.2 97.775 7.575 97.925 7.95C98.075 8.325 98.225 8.775 98.225 9.45V14.55C98.15 15.225 98.075 15.675 97.925 16.05C97.7 16.5 97.55 16.8 97.175 17.175C96.8 17.55 96.425 17.775 96.05 17.925C95.675 18.075 95.225 18.225 94.55 18.225H89.45C88.775 18.15 88.325 18.075 87.95 17.925C87.5 17.7 87.2 17.55 86.825 17.175C86.45 16.8 86.225 16.425 86.075 16.05C85.925 15.675 85.775 15.225 85.775 14.55V9.45C85.85 8.775 85.925 8.325 86.075 7.95C86.3 7.5 86.45 7.2 86.825 6.825C87.2 6.45 87.575 6.225 87.95 6.075C88.325 5.925 88.775 5.775 89.45 5.775Z" fill="black"/>
</g>
<defs>
<clipPath id="clip0_171_703">
<rect width="24" height="24" fill="white"/>
</clipPath>
<clipPath id="clip1_171_703">
<rect width="24" height="24" fill="white" transform="translate(40)"/>
</clipPath>
<clipPath id="clip2_171_703">
<rect width="24" height="24" fill="white" transform="translate(80)"/>
</clipPath>
</defs>
</svg>
