<svg width="48" height="48" viewBox="0 0 48 48" fill="none" xmlns="http://www.w3.org/2000/svg">
<path d="M0 24C0 10.7452 10.7452 0 24 0V0C37.2548 0 48 10.7452 48 24V24C48 37.2548 37.2548 48 24 48V48C10.7452 48 0 37.2548 0 24V24Z" fill="white"/>
<path d="M24 47.5C11.0213 47.5 0.5 36.9787 0.5 24C0.5 11.0213 11.0213 0.5 24 0.5C36.9787 0.5 47.5 11.0213 47.5 24C47.5 36.9787 36.9787 47.5 24 47.5Z" stroke="#353532" stroke-opacity="0.2"/>
<path d="M24 43.5C13.2304 43.5 4.5 34.7696 4.5 24C4.5 13.2304 13.2304 4.5 24 4.5C34.7696 4.5 43.5 13.2304 43.5 24C43.5 34.7696 34.7696 43.5 24 43.5Z" stroke="#353532" stroke-opacity="0.2"/>
<path d="M29.8333 23.1667H18.1667M29.8333 23.1667C30.2754 23.1667 30.6993 23.3423 31.0118 23.6548C31.3244 23.9674 31.5 24.3913 31.5 24.8333V29.8333C31.5 30.2754 31.3244 30.6993 31.0118 31.0118C30.6993 31.3244 30.2754 31.5 29.8333 31.5H18.1667C17.7246 31.5 17.3007 31.3244 16.9882 31.0118C16.6756 30.6993 16.5 30.2754 16.5 29.8333V24.8333C16.5 24.3913 16.6756 23.9674 16.9882 23.6548C17.3007 23.3423 17.7246 23.1667 18.1667 23.1667M29.8333 23.1667V21.5C29.8333 21.058 29.6577 20.634 29.3452 20.3215C29.0326 20.0089 28.6087 19.8333 28.1667 19.8333M18.1667 23.1667V21.5C18.1667 21.058 18.3423 20.634 18.6548 20.3215C18.9674 20.0089 19.3913 19.8333 19.8333 19.8333M28.1667 19.8333V18.1667C28.1667 17.7246 27.9911 17.3007 27.6785 16.9882C27.366 16.6756 26.942 16.5 26.5 16.5H21.5C21.058 16.5 20.634 16.6756 20.3215 16.9882C20.0089 17.3007 19.8333 17.7246 19.8333 18.1667V19.8333M28.1667 19.8333H19.8333" stroke="black" stroke-width="2" stroke-linecap="round" stroke-linejoin="round"/>
</svg>
